<mxfile host="app.diagrams.net" modified="2021-08-19T12:52:49.722Z" agent="5.0 (Macintosh; Intel Mac OS X 10_15_7) AppleWebKit/537.36 (KHTML, like Gecko) Chrome/92.0.4515.131 Safari/537.36" etag="JmpJ2t36i0OTaZOPOMFT" version="14.9.8" type="github">
  <diagram name="Page-1" id="5f0bae14-7c28-e335-631c-24af17079c00">
    <mxGraphModel dx="1554" dy="912" grid="1" gridSize="10" guides="1" tooltips="1" connect="1" arrows="1" fold="1" page="1" pageScale="1" pageWidth="1100" pageHeight="850" background="none" math="0" shadow="0">
      <root>
        <mxCell id="0" />
        <mxCell id="1" parent="0" />
        <mxCell id="YD3XtsnWeHTh5TW_9rF6-35" style="edgeStyle=orthogonalEdgeStyle;rounded=0;orthogonalLoop=1;jettySize=auto;html=1;" edge="1" parent="1" source="39150e848f15840c-1">
          <mxGeometry relative="1" as="geometry">
            <mxPoint x="490" y="560" as="targetPoint" />
          </mxGeometry>
        </mxCell>
        <mxCell id="YD3XtsnWeHTh5TW_9rF6-37" value="监控" style="edgeLabel;html=1;align=center;verticalAlign=middle;resizable=0;points=[];" vertex="1" connectable="0" parent="YD3XtsnWeHTh5TW_9rF6-35">
          <mxGeometry x="-0.0194" y="-2" relative="1" as="geometry">
            <mxPoint as="offset" />
          </mxGeometry>
        </mxCell>
        <mxCell id="39150e848f15840c-1" value="体验模块" style="verticalAlign=top;align=left;spacingTop=8;spacingLeft=2;spacingRight=12;shape=cube;size=10;direction=south;fontStyle=4;html=1;rounded=0;shadow=0;comic=0;labelBackgroundColor=none;strokeWidth=1;fontFamily=Verdana;fontSize=12" parent="1" vertex="1">
          <mxGeometry x="120" y="70" width="338" height="220" as="geometry" />
        </mxCell>
        <mxCell id="YD3XtsnWeHTh5TW_9rF6-32" style="edgeStyle=orthogonalEdgeStyle;rounded=0;orthogonalLoop=1;jettySize=auto;html=1;exitX=0.595;exitY=0.997;exitDx=0;exitDy=0;exitPerimeter=0;" edge="1" parent="1" source="39150e848f15840c-2">
          <mxGeometry relative="1" as="geometry">
            <mxPoint x="535" y="200" as="sourcePoint" />
            <mxPoint x="530" y="560" as="targetPoint" />
            <Array as="points">
              <mxPoint x="541" y="180" />
              <mxPoint x="530" y="180" />
            </Array>
          </mxGeometry>
        </mxCell>
        <mxCell id="YD3XtsnWeHTh5TW_9rF6-34" value="解释问题" style="edgeLabel;html=1;align=center;verticalAlign=middle;resizable=0;points=[];" vertex="1" connectable="0" parent="YD3XtsnWeHTh5TW_9rF6-32">
          <mxGeometry x="-0.1603" relative="1" as="geometry">
            <mxPoint y="29" as="offset" />
          </mxGeometry>
        </mxCell>
        <mxCell id="39150e848f15840c-2" value="业务模块&lt;br&gt;" style="verticalAlign=top;align=left;spacingTop=8;spacingLeft=2;spacingRight=12;shape=cube;size=10;direction=south;fontStyle=4;html=1;rounded=0;shadow=0;comic=0;labelBackgroundColor=none;strokeWidth=1;fontFamily=Verdana;fontSize=12" parent="1" vertex="1">
          <mxGeometry x="540" y="70" width="320" height="220" as="geometry" />
        </mxCell>
        <mxCell id="YD3XtsnWeHTh5TW_9rF6-1" style="edgeStyle=orthogonalEdgeStyle;rounded=0;orthogonalLoop=1;jettySize=auto;html=1;exitX=1;exitY=0.5;exitDx=0;exitDy=0;entryX=0.15;entryY=0.5;entryDx=0;entryDy=0;entryPerimeter=0;" edge="1" parent="1" source="39150e848f15840c-4">
          <mxGeometry relative="1" as="geometry">
            <mxPoint x="328" y="165" as="targetPoint" />
          </mxGeometry>
        </mxCell>
        <mxCell id="39150e848f15840c-4" value="体验问题树" style="html=1;rounded=0;shadow=0;comic=0;labelBackgroundColor=none;strokeWidth=1;fontFamily=Verdana;fontSize=12;align=center;" parent="1" vertex="1">
          <mxGeometry x="152" y="140" width="110" height="50" as="geometry" />
        </mxCell>
        <mxCell id="39150e848f15840c-13" style="edgeStyle=elbowEdgeStyle;rounded=0;html=1;labelBackgroundColor=none;startArrow=none;startFill=0;startSize=8;endArrow=none;endFill=0;endSize=16;fontFamily=Verdana;fontSize=12;" parent="1" edge="1">
          <mxGeometry relative="1" as="geometry">
            <mxPoint x="630" y="230" as="sourcePoint" />
            <mxPoint x="630" y="195" as="targetPoint" />
          </mxGeometry>
        </mxCell>
        <mxCell id="YD3XtsnWeHTh5TW_9rF6-2" value="" style="rounded=0;whiteSpace=wrap;html=1;" vertex="1" parent="1">
          <mxGeometry x="310" y="135" width="120" height="65" as="geometry" />
        </mxCell>
        <mxCell id="YD3XtsnWeHTh5TW_9rF6-3" value="标问" style="text;html=1;strokeColor=none;fillColor=none;align=center;verticalAlign=middle;whiteSpace=wrap;rounded=0;" vertex="1" parent="1">
          <mxGeometry x="350" y="115" width="40" height="20" as="geometry" />
        </mxCell>
        <mxCell id="YD3XtsnWeHTh5TW_9rF6-4" value="标问" style="rounded=0;whiteSpace=wrap;html=1;" vertex="1" parent="1">
          <mxGeometry x="370" y="135" width="60" height="20" as="geometry" />
        </mxCell>
        <mxCell id="YD3XtsnWeHTh5TW_9rF6-19" value="" style="edgeStyle=orthogonalEdgeStyle;rounded=0;orthogonalLoop=1;jettySize=auto;html=1;entryX=0;entryY=0.5;entryDx=0;entryDy=0;" edge="1" parent="1" source="YD3XtsnWeHTh5TW_9rF6-5" target="YD3XtsnWeHTh5TW_9rF6-21">
          <mxGeometry relative="1" as="geometry">
            <mxPoint x="560" y="153" as="targetPoint" />
            <Array as="points">
              <mxPoint x="570" y="165" />
            </Array>
          </mxGeometry>
        </mxCell>
        <mxCell id="YD3XtsnWeHTh5TW_9rF6-20" value="发现问题" style="edgeLabel;html=1;align=center;verticalAlign=middle;resizable=0;points=[];" vertex="1" connectable="0" parent="YD3XtsnWeHTh5TW_9rF6-19">
          <mxGeometry x="-0.1944" y="-4" relative="1" as="geometry">
            <mxPoint as="offset" />
          </mxGeometry>
        </mxCell>
        <mxCell id="YD3XtsnWeHTh5TW_9rF6-5" value="标问" style="rounded=0;whiteSpace=wrap;html=1;" vertex="1" parent="1">
          <mxGeometry x="370" y="155" width="60" height="20" as="geometry" />
        </mxCell>
        <mxCell id="YD3XtsnWeHTh5TW_9rF6-6" value="标问" style="rounded=0;whiteSpace=wrap;html=1;" vertex="1" parent="1">
          <mxGeometry x="370" y="175" width="60" height="20" as="geometry" />
        </mxCell>
        <mxCell id="YD3XtsnWeHTh5TW_9rF6-11" style="edgeStyle=orthogonalEdgeStyle;rounded=0;orthogonalLoop=1;jettySize=auto;html=1;entryX=0.5;entryY=1;entryDx=0;entryDy=0;" edge="1" parent="1" source="YD3XtsnWeHTh5TW_9rF6-7" target="YD3XtsnWeHTh5TW_9rF6-2">
          <mxGeometry relative="1" as="geometry">
            <Array as="points">
              <mxPoint x="370" y="310" />
              <mxPoint x="370" y="310" />
            </Array>
          </mxGeometry>
        </mxCell>
        <mxCell id="YD3XtsnWeHTh5TW_9rF6-26" value="聚类,分类,归类" style="edgeLabel;html=1;align=center;verticalAlign=middle;resizable=0;points=[];" vertex="1" connectable="0" parent="YD3XtsnWeHTh5TW_9rF6-11">
          <mxGeometry x="-0.3333" y="3" relative="1" as="geometry">
            <mxPoint x="3" y="20" as="offset" />
          </mxGeometry>
        </mxCell>
        <mxCell id="YD3XtsnWeHTh5TW_9rF6-7" value="体验原声数据" style="swimlane;fontStyle=0;childLayout=stackLayout;horizontal=1;startSize=26;horizontalStack=0;resizeParent=1;resizeParentMax=0;resizeLast=0;collapsible=1;marginBottom=0;" vertex="1" parent="1">
          <mxGeometry x="280" y="390" width="140" height="104" as="geometry" />
        </mxCell>
        <mxCell id="YD3XtsnWeHTh5TW_9rF6-8" value="人工" style="text;strokeColor=none;fillColor=none;align=left;verticalAlign=top;spacingLeft=4;spacingRight=4;overflow=hidden;rotatable=0;points=[[0,0.5],[1,0.5]];portConstraint=eastwest;" vertex="1" parent="YD3XtsnWeHTh5TW_9rF6-7">
          <mxGeometry y="26" width="140" height="26" as="geometry" />
        </mxCell>
        <mxCell id="YD3XtsnWeHTh5TW_9rF6-9" value="自助" style="text;strokeColor=none;fillColor=none;align=left;verticalAlign=top;spacingLeft=4;spacingRight=4;overflow=hidden;rotatable=0;points=[[0,0.5],[1,0.5]];portConstraint=eastwest;" vertex="1" parent="YD3XtsnWeHTh5TW_9rF6-7">
          <mxGeometry y="52" width="140" height="26" as="geometry" />
        </mxCell>
        <mxCell id="YD3XtsnWeHTh5TW_9rF6-10" value="舆情" style="text;strokeColor=none;fillColor=none;align=left;verticalAlign=top;spacingLeft=4;spacingRight=4;overflow=hidden;rotatable=0;points=[[0,0.5],[1,0.5]];portConstraint=eastwest;" vertex="1" parent="YD3XtsnWeHTh5TW_9rF6-7">
          <mxGeometry y="78" width="140" height="26" as="geometry" />
        </mxCell>
        <mxCell id="YD3XtsnWeHTh5TW_9rF6-16" style="edgeStyle=orthogonalEdgeStyle;rounded=0;orthogonalLoop=1;jettySize=auto;html=1;entryX=0.326;entryY=1.043;entryDx=0;entryDy=0;entryPerimeter=0;" edge="1" parent="1" source="YD3XtsnWeHTh5TW_9rF6-12" target="YD3XtsnWeHTh5TW_9rF6-21">
          <mxGeometry relative="1" as="geometry">
            <mxPoint x="630" y="200" as="targetPoint" />
            <Array as="points">
              <mxPoint x="630" y="442" />
              <mxPoint x="630" y="213" />
            </Array>
          </mxGeometry>
        </mxCell>
        <mxCell id="YD3XtsnWeHTh5TW_9rF6-12" value="业务数据" style="swimlane;fontStyle=0;childLayout=stackLayout;horizontal=1;startSize=26;horizontalStack=0;resizeParent=1;resizeParentMax=0;resizeLast=0;collapsible=1;marginBottom=0;" vertex="1" parent="1">
          <mxGeometry x="640" y="390" width="140" height="104" as="geometry" />
        </mxCell>
        <mxCell id="YD3XtsnWeHTh5TW_9rF6-13" value="业务画像" style="text;strokeColor=none;fillColor=none;align=left;verticalAlign=top;spacingLeft=4;spacingRight=4;overflow=hidden;rotatable=0;points=[[0,0.5],[1,0.5]];portConstraint=eastwest;" vertex="1" parent="YD3XtsnWeHTh5TW_9rF6-12">
          <mxGeometry y="26" width="140" height="26" as="geometry" />
        </mxCell>
        <mxCell id="YD3XtsnWeHTh5TW_9rF6-14" value="影响面" style="text;strokeColor=none;fillColor=none;align=left;verticalAlign=top;spacingLeft=4;spacingRight=4;overflow=hidden;rotatable=0;points=[[0,0.5],[1,0.5]];portConstraint=eastwest;" vertex="1" parent="YD3XtsnWeHTh5TW_9rF6-12">
          <mxGeometry y="52" width="140" height="26" as="geometry" />
        </mxCell>
        <mxCell id="YD3XtsnWeHTh5TW_9rF6-15" value="业务效果对比" style="text;strokeColor=none;fillColor=none;align=left;verticalAlign=top;spacingLeft=4;spacingRight=4;overflow=hidden;rotatable=0;points=[[0,0.5],[1,0.5]];portConstraint=eastwest;" vertex="1" parent="YD3XtsnWeHTh5TW_9rF6-12">
          <mxGeometry y="78" width="140" height="26" as="geometry" />
        </mxCell>
        <mxCell id="YD3XtsnWeHTh5TW_9rF6-21" value="问题归因" style="rounded=0;whiteSpace=wrap;html=1;" vertex="1" parent="1">
          <mxGeometry x="570" y="140" width="190" height="70" as="geometry" />
        </mxCell>
        <mxCell id="YD3XtsnWeHTh5TW_9rF6-22" value="绑卡归因" style="rounded=0;whiteSpace=wrap;html=1;" vertex="1" parent="1">
          <mxGeometry x="570" y="140" width="60" height="20" as="geometry" />
        </mxCell>
        <mxCell id="YD3XtsnWeHTh5TW_9rF6-23" value="解绑归因" style="rounded=0;whiteSpace=wrap;html=1;" vertex="1" parent="1">
          <mxGeometry x="570" y="160" width="60" height="20" as="geometry" />
        </mxCell>
        <mxCell id="YD3XtsnWeHTh5TW_9rF6-24" value="其他...." style="rounded=0;whiteSpace=wrap;html=1;" vertex="1" parent="1">
          <mxGeometry x="570" y="180" width="60" height="20" as="geometry" />
        </mxCell>
        <mxCell id="YD3XtsnWeHTh5TW_9rF6-27" value="监控模块" style="verticalAlign=top;align=left;spacingTop=8;spacingLeft=2;spacingRight=12;shape=cube;size=10;direction=south;fontStyle=4;html=1;rounded=0;shadow=0;comic=0;labelBackgroundColor=none;strokeWidth=1;fontFamily=Verdana;fontSize=12" vertex="1" parent="1">
          <mxGeometry x="350" y="565" width="338" height="220" as="geometry" />
        </mxCell>
        <mxCell id="YD3XtsnWeHTh5TW_9rF6-30" value="监控告警" style="html=1;rounded=0;shadow=0;comic=0;labelBackgroundColor=none;strokeWidth=1;fontFamily=Verdana;fontSize=12;align=center;" vertex="1" parent="1">
          <mxGeometry x="400" y="660" width="110" height="50" as="geometry" />
        </mxCell>
        <mxCell id="YD3XtsnWeHTh5TW_9rF6-40" value="瑞思值" style="ellipse;shape=cloud;whiteSpace=wrap;html=1;fillColor=#dae8fc;strokeColor=#6c8ebf;" vertex="1" parent="1">
          <mxGeometry x="370" y="40" width="102" height="60" as="geometry" />
        </mxCell>
        <mxCell id="YD3XtsnWeHTh5TW_9rF6-44" style="edgeStyle=orthogonalEdgeStyle;rounded=0;orthogonalLoop=1;jettySize=auto;html=1;exitX=0.5;exitY=1;exitDx=0;exitDy=0;entryX=0.5;entryY=0;entryDx=0;entryDy=0;" edge="1" parent="1" source="YD3XtsnWeHTh5TW_9rF6-42" target="YD3XtsnWeHTh5TW_9rF6-43">
          <mxGeometry relative="1" as="geometry" />
        </mxCell>
        <mxCell id="YD3XtsnWeHTh5TW_9rF6-42" value="原声波动" style="shape=process;whiteSpace=wrap;html=1;backgroundOutline=1;" vertex="1" parent="1">
          <mxGeometry x="560" y="600" width="100" height="30" as="geometry" />
        </mxCell>
        <mxCell id="YD3XtsnWeHTh5TW_9rF6-46" style="edgeStyle=orthogonalEdgeStyle;rounded=0;orthogonalLoop=1;jettySize=auto;html=1;entryX=0.5;entryY=0;entryDx=0;entryDy=0;" edge="1" parent="1" source="YD3XtsnWeHTh5TW_9rF6-43" target="YD3XtsnWeHTh5TW_9rF6-45">
          <mxGeometry relative="1" as="geometry" />
        </mxCell>
        <mxCell id="YD3XtsnWeHTh5TW_9rF6-43" value="归因波动" style="shape=process;whiteSpace=wrap;html=1;backgroundOutline=1;" vertex="1" parent="1">
          <mxGeometry x="560" y="650" width="100" height="30" as="geometry" />
        </mxCell>
        <mxCell id="YD3XtsnWeHTh5TW_9rF6-45" value="规则告警" style="shape=process;whiteSpace=wrap;html=1;backgroundOutline=1;" vertex="1" parent="1">
          <mxGeometry x="560" y="700" width="100" height="30" as="geometry" />
        </mxCell>
      </root>
    </mxGraphModel>
  </diagram>
</mxfile>
